# xmcd
#
# Track frame offsets: 
#        150
#        16023
#        31896
#        48633
#        68275
#        85051
#        102734
#        118007
#        136178
#        154390
#        167308
#        203216
#
# Disc length: 2903 seconds
#
# Revision: 0
# Processed by: cddbd v1.5.2PL0 Copyright (c) Steve Scherf et al.
# Submitted via: ExactAudioCopy v0.95b4
#
DISCID=920b550c
DTITLE=Paolo Nutini - 01 - PAOLO  NUTIThese Streets
DYEAR=1900
DGENRE=Soul
TTITLE0=01 - PAOLO  NUTINI - Jenny Don't Be Hasty
TTITLE1=01 - PAOLO  NUTINI - Jenny Don't Be Hasty (1)
TTITLE2=02 - PAOLO  NUTINI - Last Request
TTITLE3=03 - PAOLO  NUTINI - Rewind
TTITLE4=04 - PAOLO  NUTINI - Million Faces
TTITLE5=05 - PAOLO  NUTINI - These Streets
TTITLE6=06 - PAOLO  NUTINI - New Shoes
TTITLE7=07 - PAOLO  NUTINI - White Lies
TTITLE8=08 - PAOLO  NUTINI - Loving You
TTITLE9=09 - PAOLO  NUTINI - Autumn
TTITLE10=10 - PAOLO  NUTINI - Alloway Grove
TTITLE11=11 - PAOLO  NUTINI - Untitled  (Hidden Track)
EXTD=
EXTT0=
EXTT1=
EXTT2=
EXTT3=
EXTT4=
EXTT5=
EXTT6=
EXTT7=
EXTT8=
EXTT9=
EXTT10=
EXTT11=
PLAYORDER=
